<svg xmlns="http://www.w3.org/2000/svg" viewBox="0 0 34 34" width="34" height="34">
    <g transform="matrix(1.0006,0,0,1.0007,0.99,-287.74)">
        <path fill="#000000" stroke="none" d="M19.002,1.131V2h0v11h1V2.336A15,15 45 0 1 32,17 15,15 45 0 1 21.002,31.455v1.033A16.01,16.01 45 0 0 33.01,17 16.01,16.01 45 0 0 19.002,1.131Z M12.998,1.512A16.01,16.01 45 0 0 0.99,17 16.01,16.01 45 0 0 14.998,32.869v-0.869h0V21h-1v10.664A15,15 45 0 1 2,17 15,15 45 0 1 12.998,2.545Z" transform="matrix(0.707,-0.707,0.707,0.707,-8.027,304.533)"/>
    </g>
</svg>
